<svg xmlns="http://www.w3.org/2000/svg" viewBox="0 0 300 64" width="300" height="64">
  <title>Hollowmark wordmark</title>
  <g transform="translate(4,10) scale(0.68)" fill="none" stroke="#4A90D9" stroke-width="5.2" stroke-linecap="round" stroke-linejoin="round">
    <path d="M16,12 V52" />
    <path d="M48,12 V52" />
    <path d="M16,32 h12 l4,-5 l4,5 h12" />
  </g>
  <g fill="#4A90D9">
    <path d="M12 0Q9 0 9.0 6.0Q9 12 12 12Q41 12 56.0 17.0Q71 22 78.5 37.0Q86 52 91 81L173 544Q181 586 170.5 599.5Q160 613 119 613Q117 613 117.0 619.0Q117 625 119 625Q142 625 168.5 623.5Q195 622 225 622Q256 622 285.0 623.5Q314 625 335 625Q337 625 337.0 619.0Q337 613 335 613Q306 613 291.5 607.0Q277 601 269.5 585.5Q262 570 257 542L175 81Q167 38 177.0 25.0Q187 12 228 12Q231 12 231.0 6.0Q231 0 228 0Q206 0 178.0 1.0Q150 2 118 2Q88 2 61.0 1.0Q34 0 12 0ZM163 312 166 338H549L546 312ZM380 0Q378 0 378.0 6.0Q378 12 380 12Q409 12 423.5 17.0Q438 22 445.5 37.0Q453 52 458 81L539 542Q546 584 537.0 598.5Q528 613 487 613Q484 613 484.0 619.0Q484 625 487 625Q508 625 535.5 623.5Q563 622 593 622Q623 622 651.5 623.5Q680 625 701 625Q703 625 703.0 619.0Q703 613 701 613Q674 613 659.0 607.5Q644 602 636.5 587.0Q629 572 624 544L542 81Q535 38 545.0 25.0Q555 12 595 12Q598 12 598.0 6.0Q598 0 595 0Q576 0 548.0 1.0Q520 2 489 2Q459 2 430.5 1.0Q402 0 380 0Z" transform="translate(54.0000,46.0000) scale(0.034000,-0.034000)" />
    <path d="M157 -14Q104 -14 72.0 14.5Q40 43 29.5 90.0Q19 137 30 193Q41 253 73.0 299.5Q105 346 150.0 372.5Q195 399 247 399Q302 399 334.5 371.0Q367 343 377.5 296.5Q388 250 376 193Q364 127 329.0 80.0Q294 33 248.5 9.5Q203 -14 157 -14ZM191 11Q226 11 253.5 48.0Q281 85 292 149Q300 191 299.0 231.0Q298 271 288.0 304.0Q278 337 259.5 356.0Q241 375 215 375Q182 375 154.5 340.0Q127 305 114 236Q106 193 107.5 152.5Q109 112 119.0 80.5Q129 49 147.5 30.0Q166 11 191 11Z" transform="translate(76.2960,46.0000) scale(0.034000,-0.034000)" />
    <path d="M93 -9Q62 -9 53.5 15.0Q45 39 54 89L148 599Q156 643 143.0 653.0Q130 663 87 642Q83 640 81.0 646.0Q79 652 83 653L229 725Q234 727 238.0 723.0Q242 719 241 717L128 89Q121 60 126.5 49.0Q132 38 141 38Q152 38 166.5 49.0Q181 60 198 77Q202 81 206.0 77.0Q210 73 206 69Q175 32 148.0 11.5Q121 -9 93 -9Z" transform="translate(89.4460,46.0000) scale(0.034000,-0.034000)" />
    <path d="M93 -9Q62 -9 53.5 15.0Q45 39 54 89L148 599Q156 643 143.0 653.0Q130 663 87 642Q83 640 81.0 646.0Q79 652 83 653L229 725Q234 727 238.0 723.0Q242 719 241 717L128 89Q121 60 126.5 49.0Q132 38 141 38Q152 38 166.5 49.0Q181 60 198 77Q202 81 206.0 77.0Q210 73 206 69Q175 32 148.0 11.5Q121 -9 93 -9Z" transform="translate(97.1220,46.0000) scale(0.034000,-0.034000)" />
    <path d="M157 -14Q104 -14 72.0 14.5Q40 43 29.5 90.0Q19 137 30 193Q41 253 73.0 299.5Q105 346 150.0 372.5Q195 399 247 399Q302 399 334.5 371.0Q367 343 377.5 296.5Q388 250 376 193Q364 127 329.0 80.0Q294 33 248.5 9.5Q203 -14 157 -14ZM191 11Q226 11 253.5 48.0Q281 85 292 149Q300 191 299.0 231.0Q298 271 288.0 304.0Q278 337 259.5 356.0Q241 375 215 375Q182 375 154.5 340.0Q127 305 114 236Q106 193 107.5 152.5Q109 112 119.0 80.5Q129 49 147.5 30.0Q166 11 191 11Z" transform="translate(104.7980,46.0000) scale(0.034000,-0.034000)" />
    <path d="M188 -13Q153 -13 131.0 5.5Q109 24 100.5 56.5Q92 89 98 130Q105 169 123.0 211.5Q141 254 162 292Q170 306 169.0 312.5Q168 319 157 319H108Q83 319 69.0 314.5Q55 310 47.0 300.0Q39 290 33 273Q31 269 25.0 270.0Q19 271 21 276Q36 319 48.0 343.0Q60 367 77.5 377.0Q95 387 124 387H216Q224 387 226.0 385.0Q228 383 224 375Q204 327 185.0 272.5Q166 218 160 178Q152 120 172.0 86.5Q192 53 230 53Q255 53 279.0 71.0Q303 89 324.0 118.0Q345 147 359.5 182.0Q374 217 379 251Q384 283 376.5 297.5Q369 312 353 312Q339 312 329.5 299.5Q320 287 316 262Q310 228 314.0 191.5Q318 155 332.5 123.5Q347 92 371.5 72.5Q396 53 429 53Q454 53 478.5 71.0Q503 89 521.5 121.5Q540 154 545 198Q550 228 546.5 247.0Q543 266 534.5 280.0Q526 294 514 307Q505 317 498.0 327.5Q491 338 491 352Q491 376 506.5 386.0Q522 396 541 396Q562 396 574.0 381.5Q586 367 590.0 337.0Q594 307 589 261Q583 204 562.5 153.5Q542 103 513.5 66.0Q485 29 452.0 8.0Q419 -13 388 -13Q357 -13 334.5 7.5Q312 28 299.5 63.5Q287 99 285.0 146.5Q283 194 293 249Q301 296 313.0 328.0Q325 360 341.5 376.0Q358 392 376 392Q402 392 411.0 365.5Q420 339 412 291Q403 228 380.0 173.5Q357 119 325.5 76.5Q294 34 258.5 10.5Q223 -13 188 -13Z" transform="translate(117.9480,46.0000) scale(0.034000,-0.034000)" />
    <path d="M549 -9Q518 -9 510.0 15.0Q502 39 510 89L540 248Q549 299 542.0 323.5Q535 348 513 348Q487 348 456.0 310.0Q425 272 396.5 197.0Q368 122 349 10L334 11Q354 132 388.0 219.0Q422 306 466.0 352.5Q510 399 558 399Q597 399 612.5 367.5Q628 336 616 267L584 89Q579 60 583.5 49.0Q588 38 597 38Q609 38 623.0 49.0Q637 60 654 77Q658 81 662.0 77.0Q666 73 662 69Q631 32 604.0 11.5Q577 -9 549 -9ZM81 -8Q63 -8 57.0 -6.0Q51 -4 51 -1Q51 3 56.5 25.0Q62 47 66 72L107 297Q116 349 92 349Q81 349 65.5 338.5Q50 328 30 307Q27 303 22.5 307.5Q18 312 22 316Q57 358 86.0 376.5Q115 395 142 395Q171 395 180.0 373.0Q189 351 180 306L128 10Q124 -8 81 -8ZM302 -8Q285 -8 279.0 -6.0Q273 -4 273 -1Q273 3 278.5 26.0Q284 49 288 74L320 249Q329 301 321.0 324.5Q313 348 291 348Q264 348 232.5 308.5Q201 269 173.5 193.5Q146 118 128 10L112 11Q131 130 165.0 217.0Q199 304 243.5 351.5Q288 399 337 399Q375 399 391.5 368.0Q408 337 396 268L349 10Q347 -8 302 -8Z" transform="translate(138.5780,46.0000) scale(0.034000,-0.034000)" />
    <path d="M82 -13Q49 -13 30.0 11.5Q11 36 19 91Q26 143 53.5 197.0Q81 251 120.5 297.0Q160 343 205.0 371.0Q250 399 291 399Q310 399 330.0 392.0Q350 385 364.5 368.5Q379 352 381 326L327 357Q342 359 360.0 373.0Q378 387 388 407Q390 410 395.5 408.5Q401 407 400 405L342 89Q333 38 355 38Q365 38 380.0 48.5Q395 59 413 77Q416 80 420.0 76.0Q424 72 421 69Q390 32 362.5 11.5Q335 -9 309 -9Q280 -9 270.0 14.0Q260 37 268 89L293 229L313 246Q287 166 248.0 108.0Q209 50 166.0 18.5Q123 -13 82 -13ZM137 52Q162 52 188.0 72.0Q214 92 237.0 124.0Q260 156 276.5 192.5Q293 229 299 261Q307 304 292.5 329.5Q278 355 246 355Q216 354 185.5 328.5Q155 303 132.0 259.5Q109 216 99 160Q90 101 101.5 76.5Q113 52 137 52Z" transform="translate(161.1460,46.0000) scale(0.034000,-0.034000)" />
    <path d="M125 10 115 11Q125 62 138.5 115.5Q152 169 168.5 219.0Q185 269 205.0 308.5Q225 348 247.5 371.5Q270 395 294 395Q309 395 325.0 387.0Q341 379 351.0 365.5Q361 352 358 336Q356 323 345.5 311.0Q335 299 318 299Q303 299 293.5 307.0Q284 315 275.5 323.0Q267 331 257 331Q245 331 230.0 308.5Q215 286 199.0 250.0Q183 214 168.5 171.0Q154 128 143.0 85.5Q132 43 125 10ZM78 -8Q60 -8 54.0 -6.0Q48 -4 48 -1Q48 3 54.0 26.0Q60 49 64 74L102 284Q107 309 105.5 323.0Q104 337 99.0 343.0Q94 349 86 349Q75 349 60.0 338.5Q45 328 27 310Q24 307 20.0 311.0Q16 315 19 319Q53 359 81.0 377.0Q109 395 136 395Q157 395 167.5 384.5Q178 374 180.0 351.5Q182 329 176 292L125 10Q123 -8 78 -8Z" transform="translate(175.5200,46.0000) scale(0.034000,-0.034000)" />
    <path d="M61 -8Q43 -8 37.0 -6.0Q31 -4 31 -1Q31 3 36.5 25.5Q42 48 46 74L143 599Q151 643 137.5 653.0Q124 663 81 642Q77 640 75.0 646.0Q73 652 77 653L223 725Q227 727 231.5 723.5Q236 720 235 717L143 206L109 10Q104 -8 61 -8ZM314 -9Q289 -9 270.0 5.5Q251 20 228 58L170 156Q159 174 150.0 178.0Q141 182 120 176L220 213L289 99Q310 64 324.5 54.0Q339 44 352 44Q363 44 378.0 51.5Q393 59 411 75Q415 79 419.0 74.5Q423 70 419 67Q353 -9 314 -9ZM120 176V192Q180 205 219.0 221.5Q258 238 277.5 260.5Q297 283 300 315Q303 336 296.0 348.0Q289 360 272 360Q228 360 193.0 318.0Q158 276 143 206L104 243Q128 287 164.0 322.0Q200 357 243.0 378.0Q286 399 329 399Q359 399 372.5 388.5Q386 378 390.0 364.0Q394 350 391 339Q386 308 352.0 276.0Q318 244 259.0 218.0Q200 192 120 176Z" transform="translate(186.8000,46.0000) scale(0.034000,-0.034000)" />
  </g>
</svg>