<svg xmlns="http://www.w3.org/2000/svg" viewBox="0 0 64 64" width="64" height="64">
  <title>Hollowmark mark</title>
  
  <path fill="#4A90D9" fill-rule="evenodd" d="M1.5,32 a30.5,29.4 0 1,0 61,0 a30.5,29.4 0 1,0 -61,0 Z M20,16 L27,16 L27,28.5 L37,28.5 L37,16 L44,16 L44,48 L37,48 L37,33.5 L27,33.5 L27,48 L20,48 Z"></path>
  <ellipse cx="32" cy="32" rx="29.3" ry="28.2" fill="none" stroke="#2C6BAA" stroke-width="1.5" opacity="0.55"></ellipse>
  
  <g stroke="rgba(0,0,0,0.4)" stroke-width="0.6">
    <circle cx="32" cy="3.5" r="2.6" fill="#E8E0C8"></circle>
    <circle cx="59.1" cy="23.2" r="2.6" fill="#4A90D9"></circle>
    <circle cx="48.8" cy="55" r="2.6" fill="#9B7FC2"></circle>
    <circle cx="15.2" cy="55" r="2.6" fill="#C94E3A"></circle>
    <circle cx="4.9" cy="23.2" r="2.6" fill="#3A9E5F"></circle>
  </g>
</svg>